<svg width="250" height="43" viewBox="0 0 250 43" fill="none" xmlns="http://www.w3.org/2000/svg">
<path d="M37.7139 19.1061C36.3029 20.3265 35.5978 22.024 35.7903 23.7368L35.7572 23.7083C35.9551 25.7239 35.1094 27.712 33.4457 29.1423C31.7819 30.5726 29.4693 31.2996 27.1248 31.1295L27.1579 31.1579C24.3192 30.9308 21.6195 32.2582 20.4081 34.4769C19.1966 36.6956 19.7335 39.3291 21.7504 41.0614C23.7672 42.7937 26.831 43.2528 29.4107 42.2094C31.9904 41.1659 33.5321 38.8439 33.2653 36.4037L33.3003 36.4321C33.1023 34.4165 33.9481 32.4285 35.6118 30.9982C37.2755 29.5679 39.5881 28.8408 41.9327 29.011L41.8977 28.9825C45.0176 29.2237 47.9206 27.5883 48.9088 25.0329C49.897 22.4775 48.7107 19.6734 46.0438 18.2608C43.377 16.8482 39.9301 17.1982 37.7195 19.1061H37.7139Z" fill="#5454D4"/>
<path d="M24.1474 27.4298L24.1124 27.4014C26.106 27.5741 28.0845 26.968 29.5018 25.7505C30.9192 24.5329 31.6256 22.8325 31.4263 21.1185L31.4612 21.147C31.2633 19.1314 32.109 17.1433 33.7728 15.713C35.4365 14.2827 37.7491 13.5557 40.0936 13.7258L40.0587 13.6974C42.8977 13.9266 45.5989 12.6006 46.8122 10.3822C48.0255 8.16382 47.4902 5.52957 45.474 3.7962C43.4577 2.06283 40.3935 1.60267 37.813 2.64572C35.2326 3.68878 33.6902 6.01101 33.9568 8.45163L33.9237 8.42159C34.1223 10.4373 33.2768 12.4257 31.6129 13.8562C29.949 15.2866 27.636 16.0135 25.2913 15.8428L25.3244 15.8728C23.3308 15.7001 21.3523 16.3062 19.935 17.5237C18.5176 18.7413 17.8112 20.4417 18.0105 22.1557L17.9774 22.1272C18.1747 24.1426 17.3288 26.1304 15.6652 27.5606C14.0016 28.9907 11.6894 29.718 9.34501 29.5484L9.37811 29.5768C6.53915 29.3476 3.83789 30.6736 2.62459 32.892C1.41129 35.1104 1.94657 37.7446 3.96285 39.478C5.97913 41.2114 9.04333 41.6715 11.6238 40.6285C14.2042 39.5854 15.7466 37.2632 15.48 34.8226L15.515 34.851C15.3171 32.8354 16.1628 30.8473 17.8265 29.417C19.4903 27.9867 21.8028 27.2597 24.1474 27.4298Z" fill="#FF7143"/>
<path d="M11.8222 24.2568C13.2334 23.0366 13.9381 21.3388 13.744 19.6261L13.7789 19.6546C13.5809 17.6384 14.427 15.6497 16.0916 14.2193C17.7562 12.7889 20.0699 12.0623 22.415 12.2334L22.3801 12.2049C25.218 12.4335 27.918 11.1076 29.1306 8.88997C30.3431 6.6723 29.8079 4.03909 27.7924 2.30636C25.7768 0.573629 22.7138 0.113493 20.1342 1.15591C17.5546 2.19834 16.0123 4.51945 16.2782 6.95922L16.2451 6.93076C16.443 8.94634 15.5973 10.9344 13.9335 12.3647C12.2698 13.795 9.9572 14.5221 7.61264 14.3519L7.64574 14.3804C4.52601 14.1399 1.62359 15.7757 0.635998 18.3311C-0.35159 20.8865 0.835076 23.6902 3.50195 25.1025C6.16883 26.5148 9.6154 26.1646 11.8259 24.2568H11.8222Z" fill="#5454D4"/>
<path d="M68.7899 8.48816H74.2518V31.3382H68.7899V8.48816Z" fill="#19191B"/>
<path fill-rule="evenodd" clip-rule="evenodd" d="M83.275 15.8262C79.6705 17.1206 77.3295 20.1556 77.3451 23.5138C77.3262 25.7158 78.338 27.8319 80.1529 29.3859C81.9677 30.9399 84.4332 31.8012 86.9945 31.7761C90.9008 31.7761 94.4218 29.7513 95.913 26.6475C97.4043 23.5436 96.5716 19.973 93.8039 17.6031C91.0362 15.2333 86.8795 14.5318 83.275 15.8262ZM86.9169 20.0125C89.2152 19.976 91.1184 21.5384 91.182 23.5137C91.244 24.493 90.8268 25.45 90.0314 26.153C89.236 26.856 88.1349 27.241 86.9945 27.2148C84.6958 27.2149 82.8264 25.6227 82.8051 23.6467C82.7838 21.6706 84.6187 20.0489 86.9169 20.0125Z" fill="#19191B"/>
<path fill-rule="evenodd" clip-rule="evenodd" d="M118.413 30.5492V15.6879L113.096 15.6847V17.2815C111.799 15.9172 109.826 15.1623 107.779 15.2468C102.785 15.3822 98.8187 18.9015 98.8187 23.1968C98.8187 27.492 102.785 31.0114 107.779 31.1468C109.826 31.2312 111.799 30.4763 113.096 29.1121V30.5428C113.187 31.4869 112.775 32.4154 111.975 33.0667C111.174 33.718 110.073 34.0214 108.982 33.8914C107.256 34.0429 105.601 33.257 104.831 31.9199L100.171 34.236C101.994 36.7898 105.324 38.254 108.8 38.0304C113.642 38.0304 118.413 35.8075 118.413 30.5492ZM110.502 19.5821C112.145 20.2191 113.173 21.651 113.098 23.1992C113.132 24.1988 112.672 25.1642 111.833 25.8569C110.994 26.5496 109.854 26.9051 108.693 26.8354C106.891 26.8373 105.268 25.8968 104.594 24.4597C103.92 23.0226 104.331 21.3776 105.631 20.3043C106.931 19.231 108.859 18.9451 110.502 19.5821Z" fill="#19191B"/>
<path fill-rule="evenodd" clip-rule="evenodd" d="M127.436 15.8262C123.831 17.1206 121.49 20.1556 121.506 23.5138C121.487 25.7158 122.499 27.8319 124.314 29.3859C126.128 30.9399 128.594 31.8012 131.155 31.7761C135.062 31.7761 138.582 29.7513 140.074 26.6475C141.565 23.5436 140.732 19.973 137.965 17.6031C135.197 15.2333 131.04 14.5318 127.436 15.8262ZM131.078 20.0125C133.376 19.976 135.279 21.5384 135.343 23.5137C135.405 24.493 134.988 25.45 134.192 26.153C133.397 26.856 132.296 27.241 131.155 27.2148C128.857 27.2149 126.987 25.6227 126.966 23.6467C126.945 21.6706 128.779 20.0489 131.078 20.0125Z" fill="#19191B"/>
<path fill-rule="evenodd" clip-rule="evenodd" d="M145.375 8.89069C144.15 9.32675 143.352 10.3541 143.352 11.4936C143.37 13.0431 144.826 14.2955 146.629 14.3109C147.954 14.3109 149.149 13.6245 149.657 12.5717C150.164 11.5189 149.883 10.3072 148.946 9.50141C148.009 8.69566 146.599 8.45462 145.375 8.89069ZM149.367 15.6879H143.903L143.896 31.3397H149.367V15.6879Z" fill="#19191B"/>
<path fill-rule="evenodd" clip-rule="evenodd" d="M170.598 29.2006C172.232 27.6497 173.078 25.603 172.951 23.5138C173.079 21.4242 172.233 19.3768 170.599 17.8255C168.966 16.2743 166.68 15.3472 164.249 15.2499C162.199 15.1539 160.208 15.8545 158.825 17.1582V15.6879H153.363V37.5988H158.825V29.8662C160.208 31.1709 162.199 31.8722 164.249 31.776C166.68 31.6783 168.965 30.7514 170.598 29.2006ZM163.085 19.8827C165.464 19.8485 167.429 21.4693 167.489 23.5137C167.571 24.5297 167.146 25.5277 166.318 26.2568C165.491 26.986 164.342 27.3771 163.158 27.3318C160.779 27.332 158.845 25.6834 158.825 23.6384C158.805 21.5934 160.707 19.9169 163.085 19.8827Z" fill="#19191B"/>
<path d="M189.806 26.6426C189.806 30.2426 186.166 31.7761 182.234 31.7761C178.984 32.0292 175.882 30.5535 174.406 28.0513L179.137 25.7352C179.532 26.9 180.819 27.6696 182.227 27.5817C183.536 27.5817 184.193 27.2371 184.193 26.6126C184.193 24.8893 175.235 25.7984 175.235 20.3835C175.235 16.9701 178.586 15.25 182.372 15.25C185.271 15.1712 187.991 16.454 189.471 18.5986L184.811 20.7582C184.393 19.9201 183.433 19.3779 182.372 19.3811C181.425 19.3811 180.842 19.6973 180.842 20.257C180.85 22.042 189.806 20.8515 189.806 26.6426Z" fill="#19191B"/>
<path d="M209.757 15.6879V31.3397H204.295V29.8678C203.017 31.1853 201.082 31.8956 199.091 31.7776C195.413 31.7776 192.286 29.5247 192.286 25.2955V15.6879H197.748V24.6078C197.656 25.3623 197.954 26.1136 198.564 26.6618C199.175 27.21 200.034 27.4996 200.915 27.4536C202.918 27.4536 204.301 26.4528 204.301 24.23V15.6926L209.757 15.6879Z" fill="#19191B"/>
<path d="M241.076 21.7289V31.3381H235.614V22.1352C235.614 20.57 234.741 19.5692 232.993 19.5692C231.173 19.5692 230.152 20.6649 230.152 22.5115V31.3381H224.692V22.1352C224.692 20.57 223.819 19.5692 222.07 19.5692C220.249 19.5692 219.23 20.6649 219.23 22.5115V31.3381H213.768V15.6863H219.23V17.125C220.381 15.8281 222.218 15.1215 224.109 15.2484C226.01 15.1684 227.821 15.9523 228.878 17.3132C230.108 15.8905 232.102 15.1108 234.158 15.2484C238.338 15.25 241.076 17.8159 241.076 21.7289Z" fill="#19191B"/>
<path d="M245.696 15.5916C247.934 15.5916 249.749 14.0315 249.749 12.1071C249.749 10.1826 247.934 8.62256 245.696 8.62256C243.457 8.62256 241.642 10.1826 241.642 12.1071C241.642 14.0315 243.457 15.5916 245.696 15.5916Z" fill="#19191B"/>
</svg>
